<svg xmlns="http://www.w3.org/2000/svg" width="194" height="42" viewBox="0 0 194 42" fill="none">
  <g clip-path="url(#clip0_507_377)">
    <path d="M185.711 0.261719H8.20821C3.67494 0.261719 0 3.93298 0 8.46172V33.0617C0 37.5905 3.67494 41.2617 8.20821 41.2617H185.711C190.244 41.2617 193.919 37.5905 193.919 33.0617V8.46172C193.919 3.93298 190.244 0.261719 185.711 0.261719Z" fill="#FCFFFE"/>
    <path fill-rule="evenodd" clip-rule="evenodd" d="M28.4681 9.43268C31.4461 9.44703 34.32 10.6151 36.4697 12.6738C38.6711 14.7823 39.9399 17.6094 40.0508 20.654C40.1592 23.6273 39.1201 26.5479 37.1493 28.7784C34.9878 31.2247 31.9811 32.6298 28.7338 32.7228C28.6226 32.7261 28.5115 32.7277 28.4003 32.7276C26.6505 32.7276 24.917 32.3334 23.3469 31.5787L17.244 32.9348C17.23 32.9375 17.2156 32.9369 17.2019 32.9329C17.1883 32.9289 17.1757 32.9218 17.1654 32.912C17.155 32.9023 17.1471 32.8902 17.1424 32.8768C17.1376 32.8634 17.1361 32.8491 17.138 32.835L18.169 26.6702C17.2892 25.0642 16.7981 23.2548 16.7452 21.4142C16.6559 18.3043 17.7842 15.3458 19.9223 13.0837C22.1392 10.7383 25.1665 9.43268 28.4104 9.43268H28.4681ZM28.4032 11.4537C28.3099 11.4537 28.2165 11.455 28.1233 11.4577C22.812 11.6099 18.615 16.0504 18.7673 21.3563C18.8139 22.9764 19.2708 24.5667 20.0887 25.9553L20.2662 26.2563L19.5023 30.4395L23.6461 29.4623L23.959 29.6251C25.3244 30.3348 26.8543 30.7068 28.4 30.7068C28.4918 30.7068 28.5839 30.7054 28.6757 30.7028C33.987 30.5505 38.1841 26.1101 38.0317 20.8042C37.882 15.5919 33.5896 11.4537 28.4032 11.4537ZM24.3724 15.4536C24.5673 15.4597 24.7625 15.4652 24.9328 15.4777C25.141 15.4926 25.3715 15.5095 25.5756 16.0033C25.818 16.5897 26.3421 18.0537 26.4107 18.2023C26.4794 18.3508 26.5229 18.5231 26.4193 18.7154C26.3158 18.9075 26.2633 19.0279 26.1121 19.1942C25.9606 19.3605 25.7929 19.566 25.6574 19.6929C25.5062 19.8343 25.349 19.9881 25.5107 20.2859C25.6723 20.584 26.2299 21.5595 27.0759 22.3615C28.1631 23.3923 29.0349 23.7323 29.3812 23.8937C29.5061 23.952 29.61 23.9796 29.7007 23.9796C29.8252 23.9796 29.9249 23.9275 30.02 23.8312C30.2022 23.6468 30.7505 23.0076 30.9814 22.7135C31.1021 22.5596 31.2115 22.5051 31.3302 22.5051C31.4252 22.5051 31.5263 22.5401 31.6443 22.587C31.9094 22.6929 33.3259 23.4446 33.614 23.5999C33.9022 23.7551 34.0948 23.8343 34.1643 23.9584C34.2337 24.083 34.2156 24.6684 33.9508 25.3439C33.686 26.0194 32.4714 26.6416 31.9334 26.6738C31.7759 26.6832 31.621 26.7053 31.4194 26.7053C30.9319 26.7053 30.1718 26.577 28.4453 25.8342C25.5077 24.5705 23.7239 21.4652 23.5835 21.2657C23.4435 21.0659 22.4377 19.643 22.482 18.2037C22.5262 16.7646 23.3038 16.0801 23.5811 15.7957C23.8468 15.5229 24.1513 15.4532 24.3479 15.4532L24.3724 15.4536Z" fill="#103928"/>
    <path d="M57.0835 19.0848H59.2669C59.1998 18.4916 59.0371 17.9655 58.7785 17.5063C58.52 17.0471 58.1896 16.6645 57.7874 16.3583C57.3947 16.0426 56.9446 15.8035 56.4371 15.6408C55.9391 15.4781 55.4076 15.3969 54.8427 15.3969C54.0574 15.3969 53.3488 15.5355 52.7168 15.813C52.0943 16.0905 51.5676 16.4731 51.1367 16.961C50.7057 17.4489 50.3754 18.0229 50.1455 18.683C49.9157 19.3336 49.8008 20.0414 49.8008 20.8068C49.8008 21.553 49.9157 22.2513 50.1455 22.9019C50.3754 23.5428 50.7057 24.1025 51.1367 24.5808C51.5676 25.0592 52.0943 25.437 52.7168 25.7145C53.3488 25.9823 54.0574 26.1163 54.8427 26.1163C55.4747 26.1163 56.054 26.0207 56.5808 25.8293C57.1074 25.6379 57.5671 25.3606 57.9597 24.997C58.3523 24.6334 58.6683 24.1934 58.9078 23.6768C59.1472 23.1602 59.2956 22.5814 59.3531 21.9404H57.1697C57.0835 22.6292 56.844 23.1841 56.4515 23.6051C56.0684 24.026 55.5322 24.2364 54.8427 24.2364C54.3351 24.2364 53.9042 24.1408 53.5499 23.9494C53.1955 23.7485 52.9082 23.4854 52.688 23.1602C52.4677 22.835 52.3049 22.4714 52.1996 22.0696C52.1035 21.6555 52.0553 21.2318 52.056 20.8068C52.056 20.3571 52.1038 19.9219 52.1996 19.501C52.3049 19.08 52.4677 18.7069 52.688 18.3816C52.9082 18.0468 53.1955 17.7838 53.5499 17.5924C53.9042 17.3915 54.3351 17.2911 54.8427 17.2911C55.1203 17.2911 55.3837 17.3389 55.6327 17.4346C55.8913 17.5207 56.1211 17.645 56.3222 17.8077C56.5233 17.9703 56.6909 18.1616 56.825 18.3816C56.959 18.5921 57.0451 18.8265 57.0835 19.0848ZM60.6776 15.6408V25.8867H62.7173V21.9978C62.7173 21.2421 62.8418 20.7015 63.0908 20.3763C63.3398 20.0414 63.742 19.8741 64.2974 19.8741C64.7858 19.8741 65.1257 20.0271 65.3173 20.3333C65.5088 20.6298 65.6046 21.0843 65.6046 21.6965V25.8867H67.6443V21.3234C67.6443 20.8642 67.6012 20.4481 67.515 20.075C67.4384 19.6923 67.2996 19.3718 67.0985 19.1135C66.8974 18.8457 66.6196 18.64 66.2653 18.4965C65.9206 18.3434 65.4753 18.2669 64.9294 18.2669C64.5464 18.2669 64.1538 18.3673 63.7516 18.5682C63.3494 18.7596 63.019 19.0705 62.7604 19.501H62.7173V15.6408H60.6776ZM69.1062 20.7494C69.1349 20.271 69.2546 19.8741 69.4653 19.5584C69.6717 19.2467 69.9469 18.9866 70.2697 18.7978C70.5954 18.6064 70.9592 18.4726 71.3614 18.396C71.7676 18.3105 72.1816 18.2672 72.5967 18.2669C72.9702 18.2669 73.3485 18.2955 73.7315 18.3529C74.1146 18.4008 74.4641 18.5013 74.7801 18.6543C75.0961 18.8073 75.3547 19.0226 75.5558 19.3C75.7569 19.5679 75.8574 19.9266 75.8574 20.3763V24.2364C75.8574 24.5713 75.8766 24.8917 75.9149 25.1979C75.9533 25.5041 76.0203 25.7337 76.116 25.8867H74.0475C74.0096 25.7732 73.9761 25.6583 73.947 25.5423C73.928 25.4185 73.9136 25.2941 73.9039 25.1692C73.5783 25.5041 73.1953 25.7384 72.7547 25.8723C72.3171 26.0059 71.862 26.0736 71.4045 26.0732C71.0502 26.0732 70.7198 26.0302 70.4133 25.9441C70.107 25.858 69.8388 25.724 69.6089 25.5423C69.3791 25.3606 69.1972 25.131 69.0631 24.8535C68.9386 24.576 68.8764 24.246 68.8764 23.8633C68.8764 23.4424 68.9482 23.098 69.0918 22.8301C69.2451 22.5527 69.4366 22.3327 69.6664 22.1701C69.9059 22.0074 70.174 21.8879 70.4708 21.8113C70.773 21.7262 71.08 21.6591 71.3901 21.6104C71.6966 21.5625 71.9982 21.5243 72.2951 21.4956C72.592 21.4669 72.8553 21.4239 73.0851 21.3665C73.3149 21.3091 73.497 21.2278 73.631 21.1225C73.7651 21.0077 73.8273 20.845 73.8177 20.6346C73.8177 20.4145 73.7794 20.2423 73.7028 20.118C73.6358 19.984 73.54 19.8836 73.4155 19.8166C73.3006 19.7401 73.1618 19.6923 72.9989 19.6731C72.8457 19.6444 72.6782 19.6301 72.4962 19.6301C72.094 19.6301 71.778 19.7162 71.5481 19.8884C71.3183 20.0606 71.1843 20.3476 71.1459 20.7494H69.1062ZM73.8177 22.2561C73.7315 22.3327 73.6214 22.3948 73.4873 22.4427C73.3505 22.484 73.2114 22.5175 73.0707 22.5432C72.9271 22.5719 72.7739 22.5957 72.6111 22.6149C72.4476 22.6342 72.2848 22.6581 72.1227 22.6866C71.9674 22.7159 71.8139 22.7542 71.663 22.8014C71.5194 22.8493 71.3901 22.9163 71.2752 23.0024C71.1699 23.0789 71.0837 23.1794 71.0166 23.3037C70.9496 23.428 70.9161 23.5859 70.9161 23.7772C70.9161 23.959 70.9496 24.1121 71.0166 24.2364C71.0812 24.358 71.175 24.4615 71.2896 24.5378C71.4045 24.6047 71.5386 24.6526 71.6918 24.6813C71.8451 24.71 72.0031 24.7243 72.1658 24.7243C72.568 24.7243 72.8793 24.6574 73.0995 24.5234C73.3198 24.3895 73.4826 24.2316 73.5879 24.0499C73.6932 23.8585 73.7555 23.6673 73.7746 23.4759C73.8033 23.2845 73.8177 23.1315 73.8177 23.0167V22.2561ZM80.0263 18.4677V16.2435H77.9865V18.4677H76.7512V19.831H77.9865V24.2077C77.9865 24.5808 78.0488 24.8822 78.1733 25.1118C78.2977 25.3414 78.4654 25.5184 78.676 25.6427C78.8963 25.7671 79.1452 25.8485 79.423 25.8867C79.7103 25.9346 80.0119 25.9584 80.3279 25.9584C80.529 25.9584 80.735 25.9536 80.9456 25.9441C81.1562 25.9346 81.3478 25.9154 81.5202 25.8867V24.3082C81.4205 24.3279 81.3198 24.3423 81.2185 24.3512C81.1131 24.3608 81.0031 24.3656 80.8881 24.3656C80.5434 24.3656 80.3136 24.3082 80.1987 24.1934C80.0837 24.0786 80.0263 23.849 80.0263 23.5046V19.831H81.5202V18.4677H80.0263ZM88.2985 22.1844C88.2985 21.8879 88.3272 21.5961 88.3847 21.3091C88.4422 21.0221 88.5379 20.7686 88.672 20.5485C88.8156 20.3284 89.0024 20.1515 89.2322 20.0176C89.462 19.8741 89.7493 19.8023 90.0941 19.8023C90.4388 19.8023 90.7261 19.8741 90.9559 20.0176C91.1953 20.1515 91.382 20.3284 91.5161 20.5485C91.6598 20.7686 91.7603 21.0221 91.8178 21.3091C91.8752 21.5961 91.904 21.8879 91.904 22.1844C91.904 22.4809 91.8752 22.7728 91.8178 23.0598C91.7603 23.3372 91.6598 23.5907 91.5161 23.8203C91.382 24.0404 91.1953 24.2173 90.9559 24.3512C90.7261 24.4852 90.4388 24.5521 90.0941 24.5521C89.7493 24.5521 89.462 24.4852 89.2322 24.3512C89.0061 24.2209 88.8142 24.039 88.672 23.8203C88.5379 23.5907 88.4422 23.3372 88.3847 23.0598C88.3271 22.7715 88.2983 22.4783 88.2985 22.1844ZM86.2588 22.1844C86.2588 22.7776 86.3497 23.3132 86.5317 23.7916C86.7136 24.27 86.9722 24.6813 87.3074 25.0257C87.6425 25.3606 88.0447 25.6189 88.514 25.8006C88.9832 25.9823 89.5098 26.0732 90.0941 26.0732C90.6782 26.0732 91.2048 25.9823 91.6741 25.8006C92.1529 25.6189 92.5599 25.3606 92.8951 25.0257C93.2302 24.6813 93.4888 24.27 93.6708 23.7916C93.8527 23.3132 93.9437 22.7776 93.9437 22.1844C93.9437 21.5912 93.8527 21.0556 93.6708 20.5772C93.4888 20.0893 93.2302 19.678 92.8951 19.3431C92.5599 18.9987 92.1529 18.7356 91.6741 18.5539C91.2048 18.3625 90.6782 18.2669 90.0941 18.2669C89.5098 18.2669 88.9832 18.3625 88.514 18.5539C88.0447 18.7356 87.6425 18.9987 87.3074 19.3431C86.9722 19.678 86.7136 20.0893 86.5317 20.5772C86.3497 21.0556 86.2588 21.5912 86.2588 22.1844ZM95.27 18.4677V25.8867H97.3097V21.9978C97.3097 21.2421 97.4342 20.7015 97.6832 20.3763C97.9321 20.0414 98.3343 19.8741 98.8898 19.8741C99.3782 19.8741 99.7181 20.0271 99.9096 20.3333C100.101 20.6298 100.197 21.0843 100.197 21.6965V25.8867H102.237V21.3234C102.237 20.8642 102.194 20.4481 102.107 20.075C102.031 19.6923 101.892 19.3718 101.691 19.1135C101.49 18.8457 101.212 18.64 100.858 18.4965C100.513 18.3434 100.068 18.2669 99.5218 18.2669C99.0909 18.2669 98.6695 18.3673 98.2577 18.5682C97.8459 18.7596 97.5108 19.0705 97.2522 19.501H97.2091V18.4677H95.27ZM117.766 25.8867L120.524 15.6408H118.312L116.631 22.701H116.602L114.85 15.6408H112.738L110.957 22.6149H110.928L109.305 15.6408H107.05L109.765 25.8867H112.049L113.758 18.9126H113.787L115.525 25.8867H117.766ZM121.348 15.6408V25.8867H123.387V21.9978C123.387 21.2421 123.512 20.7015 123.761 20.3763C124.009 20.0414 124.411 19.8741 124.968 19.8741C125.456 19.8741 125.796 20.0271 125.987 20.3333C126.178 20.6298 126.275 21.0843 126.275 21.6965V25.8867H128.314V21.3234C128.314 20.8642 128.271 20.4481 128.185 20.075C128.108 19.6923 127.97 19.3718 127.769 19.1135C127.568 18.8457 127.289 18.64 126.935 18.4965C126.591 18.3434 126.145 18.2669 125.6 18.2669C125.216 18.2669 124.824 18.3673 124.422 18.5682C124.02 18.7596 123.689 19.0705 123.431 19.501H123.387V15.6408H121.348ZM129.777 20.7494C129.805 20.271 129.924 19.8741 130.136 19.5584C130.342 19.2465 130.617 18.9862 130.94 18.7978C131.265 18.6064 131.63 18.4726 132.032 18.396C132.443 18.3099 132.855 18.2669 133.267 18.2669C133.641 18.2669 134.018 18.2955 134.402 18.3529C134.785 18.4008 135.134 18.5013 135.45 18.6543C135.766 18.8073 136.025 19.0226 136.226 19.3C136.427 19.5679 136.528 19.9266 136.528 20.3763V24.2364C136.528 24.5713 136.546 24.8917 136.585 25.1979C136.623 25.5041 136.69 25.7337 136.786 25.8867H134.718C134.679 25.7719 134.646 25.6571 134.617 25.5423C134.598 25.4186 134.584 25.2941 134.574 25.1692C134.248 25.5041 133.865 25.7384 133.425 25.8723C132.984 26.0063 132.535 26.0732 132.075 26.0732C131.72 26.0732 131.389 26.0302 131.084 25.9441C130.777 25.858 130.509 25.724 130.279 25.5423C130.049 25.3606 129.867 25.131 129.733 24.8535C129.608 24.576 129.547 24.246 129.547 23.8633C129.547 23.4424 129.619 23.098 129.762 22.8301C129.915 22.5527 130.107 22.3327 130.337 22.1701C130.576 22.0074 130.844 21.8879 131.141 21.8113C131.447 21.7252 131.754 21.6583 132.06 21.6104C132.366 21.5625 132.668 21.5243 132.965 21.4956C133.262 21.4669 133.526 21.4239 133.755 21.3665C133.985 21.3091 134.167 21.2278 134.301 21.1225C134.435 21.0077 134.497 20.845 134.488 20.6346C134.488 20.4145 134.449 20.2423 134.373 20.118C134.305 19.984 134.21 19.8836 134.086 19.8166C133.971 19.7401 133.831 19.6923 133.669 19.6731C133.515 19.6444 133.348 19.6301 133.167 19.6301C132.764 19.6301 132.448 19.7162 132.218 19.8884C131.989 20.0606 131.854 20.3476 131.816 20.7494H129.777ZM134.488 22.2561C134.402 22.3327 134.291 22.3948 134.158 22.4427C134.033 22.4809 133.894 22.5145 133.741 22.5432C133.597 22.5719 133.444 22.5957 133.281 22.6149C133.118 22.6341 132.955 22.658 132.793 22.6866C132.639 22.7153 132.486 22.7536 132.333 22.8014C132.19 22.8493 132.06 22.9163 131.946 23.0024C131.84 23.0789 131.754 23.1794 131.687 23.3037C131.619 23.428 131.586 23.5859 131.586 23.7772C131.586 23.959 131.619 24.1121 131.687 24.2364C131.751 24.3581 131.845 24.4617 131.96 24.5378C132.075 24.6047 132.208 24.6526 132.362 24.6813C132.515 24.71 132.673 24.7243 132.836 24.7243C133.238 24.7243 133.549 24.6574 133.77 24.5234C133.989 24.3895 134.153 24.2316 134.258 24.0499C134.363 23.8585 134.425 23.6673 134.445 23.4759C134.474 23.2845 134.488 23.1315 134.488 23.0167V22.2561ZM140.697 18.4677V16.2435H138.657V18.4677H137.421V19.831H138.657V24.2077C138.657 24.5808 138.718 24.8822 138.844 25.1118C138.968 25.3414 139.135 25.5184 139.346 25.6427C139.566 25.7671 139.815 25.8485 140.093 25.8867C140.381 25.9346 140.682 25.9584 140.998 25.9584C141.199 25.9584 141.405 25.9536 141.616 25.9441C141.826 25.9346 142.018 25.9154 142.19 25.8867V24.3082C142.091 24.3278 141.99 24.3422 141.889 24.3512C141.783 24.3608 141.673 24.3656 141.558 24.3656C141.214 24.3656 140.984 24.3082 140.869 24.1934C140.754 24.0786 140.697 23.849 140.697 23.5046V19.831H142.19V18.4677H140.697ZM144.74 23.4759H142.801C142.82 23.9733 142.93 24.3895 143.131 24.7243C143.343 25.0496 143.605 25.3127 143.921 25.5136C144.248 25.7145 144.616 25.858 145.027 25.9441C145.44 26.0302 145.861 26.0732 146.291 26.0732C146.713 26.0732 147.125 26.0302 147.527 25.9441C147.939 25.8675 148.302 25.7288 148.618 25.5279C148.932 25.3299 149.193 25.0591 149.38 24.7387C149.581 24.4038 149.681 23.9925 149.681 23.5046C149.681 23.1602 149.615 22.8732 149.48 22.6436C149.347 22.4045 149.169 22.2083 148.949 22.0552C148.729 21.8926 148.475 21.7634 148.188 21.6678C147.905 21.5706 147.617 21.4891 147.326 21.4239C147.044 21.3581 146.761 21.2959 146.478 21.2373C146.201 21.1799 145.952 21.1177 145.731 21.0507C145.521 20.9742 145.349 20.8786 145.214 20.7638C145.081 20.649 145.013 20.5006 145.013 20.3189C145.013 20.1659 145.052 20.0463 145.128 19.9602C145.205 19.8645 145.296 19.7928 145.401 19.7449C145.52 19.6962 145.646 19.6671 145.774 19.6588C145.909 19.6396 146.033 19.6301 146.148 19.6301C146.512 19.6301 146.828 19.7019 147.096 19.8454C147.365 19.9793 147.512 20.2423 147.541 20.6346H149.48C149.442 20.1754 149.322 19.7975 149.121 19.501C148.93 19.1948 148.686 18.9508 148.389 18.7691C148.092 18.5874 147.753 18.4582 147.369 18.3816C146.995 18.3051 146.607 18.2669 146.205 18.2669C145.803 18.2669 145.411 18.3051 145.027 18.3816C144.645 18.4486 144.3 18.573 143.993 18.7548C143.687 18.9269 143.438 19.1661 143.246 19.4723C143.065 19.7784 142.973 20.1706 142.973 20.6489C142.973 20.9742 143.041 21.2516 143.174 21.4812C143.309 21.7013 143.486 21.8879 143.706 22.0409C143.926 22.1844 144.176 22.304 144.453 22.3996C144.74 22.4857 145.033 22.5623 145.329 22.6293C146.058 22.7823 146.622 22.9354 147.024 23.0884C147.437 23.2415 147.642 23.4711 147.642 23.7772C147.642 23.959 147.599 24.1121 147.512 24.2364C147.426 24.3512 147.316 24.4469 147.182 24.5234C147.058 24.5904 146.914 24.6431 146.751 24.6813C146.604 24.7094 146.455 24.7238 146.306 24.7243C146.107 24.7247 145.91 24.7006 145.717 24.6526C145.535 24.6047 145.372 24.533 145.228 24.4373C145.085 24.3321 144.963 24.2007 144.869 24.0499C144.783 23.8872 144.74 23.696 144.74 23.4759ZM153.677 21.9261L155.013 18.1664H155.041L156.334 21.9261H153.677ZM153.892 15.6408L150.014 25.8867H152.283L153.088 23.6051H156.923L157.699 25.8867H160.04L156.205 15.6408H153.892ZM164.458 24.5521C164.133 24.5521 163.855 24.4852 163.625 24.3512C163.395 24.2173 163.209 24.0451 163.065 23.8346C162.931 23.6146 162.83 23.3611 162.763 23.0741C162.706 22.7859 162.677 22.4927 162.677 22.1988C162.677 21.8926 162.706 21.5961 162.763 21.3091C162.821 21.0221 162.916 20.7686 163.051 20.5485C163.194 20.3284 163.376 20.1515 163.596 20.0176C163.826 19.8741 164.108 19.8023 164.444 19.8023C164.769 19.8023 165.042 19.8741 165.263 20.0176C165.493 20.1515 165.679 20.3332 165.823 20.5628C165.967 20.7829 166.067 21.0364 166.125 21.3234C166.191 21.6104 166.225 21.9022 166.225 22.1988C166.225 22.4953 166.196 22.7871 166.139 23.0741C166.081 23.3611 165.981 23.6146 165.837 23.8346C165.703 24.0451 165.521 24.2173 165.291 24.3512C165.071 24.4852 164.794 24.5521 164.458 24.5521ZM160.709 18.4677V28.484H162.749V24.9683H162.778C163.027 25.3319 163.343 25.6092 163.726 25.8006C164.119 25.9823 164.544 26.0732 165.004 26.0732C165.55 26.0732 166.024 25.968 166.426 25.7576C166.838 25.5471 167.178 25.2648 167.446 24.9109C167.724 24.557 167.929 24.1503 168.064 23.6911C168.198 23.2319 168.265 22.7536 168.265 22.2561C168.265 21.73 168.198 21.2278 168.064 20.7494C167.929 20.2615 167.724 19.8358 167.446 19.4723C167.168 19.1087 166.819 18.817 166.397 18.5969C165.976 18.3768 165.473 18.2669 164.889 18.2669C164.43 18.2669 164.008 18.3578 163.625 18.5395C163.242 18.7212 162.926 19.0131 162.677 19.4149H162.648V18.4677H160.709ZM173.24 24.5521C172.914 24.5521 172.637 24.4852 172.407 24.3512C172.177 24.2173 171.99 24.0451 171.847 23.8346C171.712 23.6146 171.612 23.3611 171.545 23.0741C171.487 22.7859 171.459 22.4927 171.459 22.1988C171.459 21.8926 171.488 21.5961 171.545 21.3091C171.602 21.0221 171.698 20.7686 171.832 20.5485C171.976 20.3284 172.158 20.1515 172.378 20.0176C172.608 19.8741 172.89 19.8023 173.226 19.8023C173.551 19.8023 173.824 19.8741 174.044 20.0176C174.274 20.1515 174.461 20.3332 174.605 20.5628C174.748 20.7829 174.849 21.0364 174.906 21.3234C174.973 21.6104 175.007 21.9022 175.007 22.1988C175.007 22.4953 174.978 22.7871 174.921 23.0741C174.863 23.3611 174.763 23.6146 174.619 23.8346C174.485 24.0451 174.303 24.2173 174.073 24.3512C173.853 24.4852 173.575 24.5521 173.24 24.5521ZM169.491 18.4677V28.484H171.531V24.9683H171.559C171.808 25.3319 172.124 25.6092 172.507 25.8006C172.899 25.9823 173.326 26.0732 173.786 26.0732C174.332 26.0732 174.806 25.968 175.208 25.7576C175.619 25.5471 175.959 25.2648 176.228 24.9109C176.505 24.557 176.711 24.1503 176.845 23.6911C176.979 23.2319 177.047 22.7536 177.047 22.2561C177.047 21.73 176.979 21.2278 176.845 20.7494C176.711 20.2615 176.505 19.8358 176.228 19.4723C175.95 19.1087 175.6 18.817 175.179 18.5969C174.758 18.3768 174.255 18.2669 173.671 18.2669C173.211 18.2669 172.79 18.3578 172.407 18.5395C172.023 18.7212 171.707 19.0131 171.459 19.4149H171.43V18.4677H169.491Z" fill="#103928"/>
  </g>
  <rect x="0.25" y="0.511719" width="193.419" height="40.5" rx="3.75" stroke="#103928" stroke-width="0.5"/>
  <defs>
    <clipPath id="clip0_507_377">
      <rect y="0.261719" width="193.919" height="41" rx="4" fill="white"/>
    </clipPath>
  </defs>
</svg>